<mxfile host="app.diagrams.net" agent="Mozilla/5.0 (Windows NT 10.0; Win64; x64) AppleWebKit/537.36 (KHTML, like Gecko) Chrome/141.0.0.0 Safari/537.36" version="28.2.8">
  <diagram name="Сторінка-1" id="_onQUzNVuPPmQUfoVk4H">
    <mxGraphModel dx="1678" dy="924" grid="1" gridSize="10" guides="1" tooltips="1" connect="1" arrows="1" fold="1" page="1" pageScale="1" pageWidth="827" pageHeight="1169" math="0" shadow="0">
      <root>
        <mxCell id="0" />
        <mxCell id="1" parent="0" />
        <mxCell id="mYlwCPnGoARMPZfVm-Uc-1" style="edgeStyle=orthogonalEdgeStyle;rounded=0;orthogonalLoop=1;jettySize=auto;html=1;dashed=1;endArrow=none;endFill=0;exitX=0.5;exitY=1;exitDx=0;exitDy=0;" edge="1" parent="1" source="mYlwCPnGoARMPZfVm-Uc-59">
          <mxGeometry relative="1" as="geometry">
            <mxPoint x="814" y="1270" as="targetPoint" />
            <mxPoint x="815.0322580645161" y="610" as="sourcePoint" />
          </mxGeometry>
        </mxCell>
        <mxCell id="mYlwCPnGoARMPZfVm-Uc-2" value="&lt;font style=&quot;font-size: 10px;&quot;&gt;Client&lt;/font&gt;" style="shape=umlActor;verticalLabelPosition=bottom;verticalAlign=top;html=1;outlineConnect=0;" vertex="1" parent="1">
          <mxGeometry x="570" y="420" width="30" height="60" as="geometry" />
        </mxCell>
        <mxCell id="mYlwCPnGoARMPZfVm-Uc-3" value="PeremohaSports" style="html=1;whiteSpace=wrap;fontSize=10;" vertex="1" parent="1">
          <mxGeometry x="760" y="430" width="110" height="50" as="geometry" />
        </mxCell>
        <mxCell id="mYlwCPnGoARMPZfVm-Uc-4" value="&lt;font style=&quot;font-size: 9px;&quot;&gt;1. openMembershipPage()&lt;/font&gt;" style="html=1;verticalAlign=bottom;endArrow=open;edgeStyle=elbowEdgeStyle;elbow=vertical;curved=0;rounded=0;endFill=0;" edge="1" parent="1" target="mYlwCPnGoARMPZfVm-Uc-51">
          <mxGeometry x="0.0016" relative="1" as="geometry">
            <mxPoint x="585" y="510" as="sourcePoint" />
            <Array as="points">
              <mxPoint x="815" y="510" />
            </Array>
            <mxPoint x="815" y="510" as="targetPoint" />
            <mxPoint as="offset" />
          </mxGeometry>
        </mxCell>
        <mxCell id="mYlwCPnGoARMPZfVm-Uc-5" value="&lt;font style=&quot;font-size: 9px;&quot;&gt;2. loadMembershipPlans()&lt;/font&gt;" style="html=1;verticalAlign=bottom;endArrow=open;edgeStyle=elbowEdgeStyle;elbow=vertical;curved=0;rounded=0;dashed=1;endFill=0;" edge="1" parent="1">
          <mxGeometry x="0.0016" relative="1" as="geometry">
            <mxPoint x="810" y="540" as="sourcePoint" />
            <Array as="points">
              <mxPoint x="655" y="540" />
            </Array>
            <mxPoint x="585" y="540" as="targetPoint" />
            <mxPoint as="offset" />
          </mxGeometry>
        </mxCell>
        <mxCell id="mYlwCPnGoARMPZfVm-Uc-6" value="&lt;span style=&quot;font-size: 6px;&quot;&gt;[Not logged in]&lt;/span&gt;" style="text;html=1;whiteSpace=wrap;strokeColor=none;fillColor=none;align=center;verticalAlign=middle;rounded=0;" vertex="1" parent="1">
          <mxGeometry x="510" y="604.5" width="80" height="20" as="geometry" />
        </mxCell>
        <mxCell id="mYlwCPnGoARMPZfVm-Uc-7" value="" style="html=1;points=[];perimeter=orthogonalPerimeter;outlineConnect=0;targetShapes=umlLifeline;portConstraint=eastwest;newEdgeStyle={&quot;edgeStyle&quot;:&quot;elbowEdgeStyle&quot;,&quot;elbow&quot;:&quot;vertical&quot;,&quot;curved&quot;:0,&quot;rounded&quot;:0};" vertex="1" parent="1">
          <mxGeometry x="810" y="580" width="10" height="510" as="geometry" />
        </mxCell>
        <mxCell id="mYlwCPnGoARMPZfVm-Uc-8" value="opt" style="shape=umlFrame;whiteSpace=wrap;html=1;pointerEvents=0;width=40;height=26;" vertex="1" parent="1">
          <mxGeometry x="470" y="604.5" width="890" height="155.5" as="geometry" />
        </mxCell>
        <mxCell id="mYlwCPnGoARMPZfVm-Uc-9" value="alt" style="shape=umlFrame;whiteSpace=wrap;html=1;pointerEvents=0;width=40;height=30;" vertex="1" parent="1">
          <mxGeometry x="470" y="826" width="890" height="284" as="geometry" />
        </mxCell>
        <mxCell id="mYlwCPnGoARMPZfVm-Uc-10" value="DB" style="html=1;whiteSpace=wrap;" vertex="1" parent="1">
          <mxGeometry x="1285" y="430" width="110" height="50" as="geometry" />
        </mxCell>
        <mxCell id="mYlwCPnGoARMPZfVm-Uc-11" value="Payment Service" style="html=1;whiteSpace=wrap;fontSize=10;" vertex="1" parent="1">
          <mxGeometry x="920" y="430" width="110" height="50" as="geometry" />
        </mxCell>
        <mxCell id="mYlwCPnGoARMPZfVm-Uc-12" style="edgeStyle=orthogonalEdgeStyle;rounded=0;orthogonalLoop=1;jettySize=auto;html=1;dashed=1;endArrow=none;endFill=0;" edge="1" parent="1">
          <mxGeometry relative="1" as="geometry">
            <mxPoint x="1340" y="1270" as="targetPoint" />
            <mxPoint x="1340.4700000000003" y="905" as="sourcePoint" />
            <Array as="points">
              <mxPoint x="1340.4700000000003" y="940" />
            </Array>
          </mxGeometry>
        </mxCell>
        <mxCell id="mYlwCPnGoARMPZfVm-Uc-13" value="&lt;font style=&quot;font-size: 9px;&quot;&gt;3. selectPlan()&lt;/font&gt;" style="html=1;verticalAlign=bottom;endArrow=open;edgeStyle=elbowEdgeStyle;elbow=vertical;curved=0;rounded=0;endFill=0;" edge="1" parent="1">
          <mxGeometry relative="1" as="geometry">
            <mxPoint x="585" y="579.74" as="sourcePoint" />
            <Array as="points" />
            <mxPoint x="810" y="580" as="targetPoint" />
            <mxPoint as="offset" />
          </mxGeometry>
        </mxCell>
        <mxCell id="mYlwCPnGoARMPZfVm-Uc-14" value="&lt;font style=&quot;font-size: 9px;&quot;&gt;8. initiatePayment()&lt;/font&gt;" style="html=1;verticalAlign=bottom;endArrow=open;edgeStyle=elbowEdgeStyle;elbow=vertical;curved=0;rounded=0;endFill=0;startSize=10;endSize=6;jumpSize=6;strokeWidth=1;" edge="1" parent="1" target="mYlwCPnGoARMPZfVm-Uc-50">
          <mxGeometry x="0.0325" relative="1" as="geometry">
            <mxPoint x="820" y="790.0469767441862" as="sourcePoint" />
            <Array as="points" />
            <mxPoint x="975" y="790" as="targetPoint" />
            <mxPoint as="offset" />
          </mxGeometry>
        </mxCell>
        <mxCell id="mYlwCPnGoARMPZfVm-Uc-15" value="&lt;span style=&quot;font-size: 6px;&quot;&gt;[Payment Successful]&lt;/span&gt;" style="text;html=1;whiteSpace=wrap;strokeColor=none;fillColor=none;align=center;verticalAlign=middle;rounded=0;" vertex="1" parent="1">
          <mxGeometry x="508" y="833" width="80" height="20" as="geometry" />
        </mxCell>
        <mxCell id="mYlwCPnGoARMPZfVm-Uc-16" value="opt" style="shape=umlFrame;whiteSpace=wrap;html=1;pointerEvents=0;width=40;height=30;" vertex="1" parent="1">
          <mxGeometry x="510" y="866" width="840" height="60" as="geometry" />
        </mxCell>
        <mxCell id="mYlwCPnGoARMPZfVm-Uc-17" value="&lt;font style=&quot;font-size: 6px;&quot;&gt;[New user]&lt;/font&gt;" style="text;html=1;whiteSpace=wrap;strokeColor=none;fillColor=none;align=center;verticalAlign=middle;rounded=0;" vertex="1" parent="1">
          <mxGeometry x="512" y="900" width="60" height="20" as="geometry" />
        </mxCell>
        <mxCell id="mYlwCPnGoARMPZfVm-Uc-18" value="&lt;font style=&quot;font-size: 9px;&quot;&gt;10. addNewUser()&lt;/font&gt;" style="html=1;verticalAlign=bottom;endArrow=open;edgeStyle=elbowEdgeStyle;elbow=vertical;curved=0;rounded=0;endFill=0;startSize=7;endSize=6;jumpSize=6;strokeWidth=1;" edge="1" parent="1">
          <mxGeometry x="-0.6979" relative="1" as="geometry">
            <mxPoint x="820" y="887" as="sourcePoint" />
            <Array as="points" />
            <mxPoint x="1335" y="886" as="targetPoint" />
            <mxPoint as="offset" />
          </mxGeometry>
        </mxCell>
        <mxCell id="mYlwCPnGoARMPZfVm-Uc-19" value="&lt;font style=&quot;font-size: 9px;&quot;&gt;13. addUserMembershipPlan()&lt;/font&gt;" style="html=1;verticalAlign=bottom;endArrow=open;edgeStyle=elbowEdgeStyle;elbow=vertical;curved=0;rounded=0;endFill=0;startSize=7;endSize=6;jumpSize=6;strokeWidth=1;" edge="1" parent="1">
          <mxGeometry x="-0.6933" relative="1" as="geometry">
            <mxPoint x="820.0000000000005" y="954.0021212121214" as="sourcePoint" />
            <Array as="points" />
            <mxPoint x="1335.0000000000005" y="954.0021212121214" as="targetPoint" />
            <mxPoint x="1" as="offset" />
          </mxGeometry>
        </mxCell>
        <mxCell id="mYlwCPnGoARMPZfVm-Uc-20" value="&lt;span style=&quot;color: rgba(0, 0, 0, 0); font-family: monospace; font-size: 0px; text-align: start; background-color: rgb(236, 236, 236);&quot;&gt;%3CmxGraphModel%3E%3Croot%3E%3CmxCell%20id%3D%220%22%2F%3E%3CmxCell%20id%3D%221%22%20parent%3D%220%22%2F%3E%3CmxCell%20id%3D%222%22%20value%3D%224.%20InitiatePayment()%22%20style%3D%22html%3D1%3BverticalAlign%3Dbottom%3BendArrow%3Dopen%3BedgeStyle%3DelbowEdgeStyle%3Belbow%3Dvertical%3Bcurved%3D0%3Brounded%3D0%3BendFill%3D0%3BstartSize%3D10%3BendSize%3D6%3BjumpSize%3D6%3BstrokeWidth%3D1%3B%22%20edge%3D%221%22%20parent%3D%221%22%3E%3CmxGeometry%20x%3D%22-0.0004%22%20relative%3D%221%22%20as%3D%22geometry%22%3E%3CmxPoint%20x%3D%22596%22%20y%3D%22214.21%22%20as%3D%22sourcePoint%22%2F%3E%3CArray%20as%3D%22points%22%2F%3E%3CmxPoint%20x%3D%22714%22%20y%3D%22214.21%22%20as%3D%22targetPoint%22%2F%3E%3CmxPoint%20as%3D%22offset%22%2F%3E%3C%2FmxGeometry%3E%3C%2FmxCell%3E%3C%2Froot%3E%3C%2FmxGraphModel%3E&lt;/span&gt;&lt;span style=&quot;color: rgba(0, 0, 0, 0); font-family: monospace; font-size: 0px; text-align: start; background-color: rgb(236, 236, 236);&quot;&gt;%3CmxGraphModel%3E%3Croot%3E%3CmxCell%20id%3D%220%22%2F%3E%3CmxCell%20id%3D%221%22%20parent%3D%220%22%2F%3E%3CmxCell%20id%3D%222%22%20value%3D%224.%20InitiatePayment()%22%20style%3D%22html%3D1%3BverticalAlign%3Dbottom%3BendArrow%3Dopen%3BedgeStyle%3DelbowEdgeStyle%3Belbow%3Dvertical%3Bcurved%3D0%3Brounded%3D0%3BendFill%3D0%3BstartSize%3D10%3BendSize%3D6%3BjumpSize%3D6%3BstrokeWidth%3D1%3B%22%20edge%3D%221%22%20parent%3D%221%22%3E%3CmxGeometry%20x%3D%22-0.0004%22%20relative%3D%221%22%20as%3D%22geometry%22%3E%3CmxPoint%20x%3D%22596%22%20y%3D%22214.21%22%20as%3D%22sourcePoint%22%2F%3E%3CArray%20as%3D%22points%22%2F%3E%3CmxPoint%20x%3D%22714%22%20y%3D%22214.21%22%20as%3D%22targetPoint%22%2F%3E%3CmxPoint%20as%3D%22offset%22%2F%3E%3C%2FmxGeometry%3E%3C%2FmxCell%3E%3C%2Froot%3E%3C%2FmxGraphModel%3E&lt;/span&gt;" style="html=1;verticalAlign=bottom;endArrow=open;edgeStyle=elbowEdgeStyle;elbow=vertical;curved=0;rounded=0;endFill=0;startSize=10;endSize=6;jumpSize=6;strokeWidth=1;dashed=1;" edge="1" parent="1">
          <mxGeometry x="-0.0322" relative="1" as="geometry">
            <mxPoint x="975.1100000000001" y="809.9988888888886" as="sourcePoint" />
            <Array as="points" />
            <mxPoint x="820" y="810.1099999999999" as="targetPoint" />
            <mxPoint as="offset" />
          </mxGeometry>
        </mxCell>
        <mxCell id="mYlwCPnGoARMPZfVm-Uc-21" value="9. Payment Status" style="edgeLabel;html=1;align=center;verticalAlign=middle;resizable=0;points=[];fontSize=9;" connectable="0" vertex="1" parent="mYlwCPnGoARMPZfVm-Uc-20">
          <mxGeometry x="0.1115" y="1" relative="1" as="geometry">
            <mxPoint x="11" y="-8" as="offset" />
          </mxGeometry>
        </mxCell>
        <mxCell id="mYlwCPnGoARMPZfVm-Uc-22" value="&lt;font style=&quot;font-size: 9px;&quot;&gt;11. Receipt&lt;/font&gt;" style="html=1;verticalAlign=bottom;endArrow=open;edgeStyle=elbowEdgeStyle;elbow=vertical;curved=0;rounded=0;dashed=1;endFill=0;" edge="1" parent="1">
          <mxGeometry x="-0.018" relative="1" as="geometry">
            <mxPoint x="1340" y="903" as="sourcePoint" />
            <Array as="points" />
            <mxPoint x="820" y="904" as="targetPoint" />
            <mxPoint as="offset" />
          </mxGeometry>
        </mxCell>
        <mxCell id="mYlwCPnGoARMPZfVm-Uc-23" value="&lt;font style=&quot;font-size: 9px;&quot;&gt;14. Receipt&lt;/font&gt;" style="html=1;verticalAlign=bottom;endArrow=open;edgeStyle=elbowEdgeStyle;elbow=vertical;curved=0;rounded=0;dashed=1;endFill=0;" edge="1" parent="1" source="mYlwCPnGoARMPZfVm-Uc-28">
          <mxGeometry x="-0.0286" relative="1" as="geometry">
            <mxPoint x="1115" y="976" as="sourcePoint" />
            <Array as="points">
              <mxPoint x="1090" y="986" />
            </Array>
            <mxPoint x="820" y="986" as="targetPoint" />
            <mxPoint as="offset" />
          </mxGeometry>
        </mxCell>
        <mxCell id="mYlwCPnGoARMPZfVm-Uc-24" value="&lt;span style=&quot;font-size: 6px;&quot;&gt;[Payment Error]&lt;/span&gt;" style="text;html=1;whiteSpace=wrap;strokeColor=none;fillColor=none;align=center;verticalAlign=middle;rounded=0;" vertex="1" parent="1">
          <mxGeometry x="502" y="1039" width="80" height="20" as="geometry" />
        </mxCell>
        <mxCell id="mYlwCPnGoARMPZfVm-Uc-25" value="" style="endArrow=none;dashed=1;html=1;strokeWidth=2;rounded=0;entryX=0.998;entryY=0.731;entryDx=0;entryDy=0;entryPerimeter=0;exitX=-0.001;exitY=0.737;exitDx=0;exitDy=0;exitPerimeter=0;" edge="1" parent="1" source="mYlwCPnGoARMPZfVm-Uc-9" target="mYlwCPnGoARMPZfVm-Uc-9">
          <mxGeometry width="50" height="50" relative="1" as="geometry">
            <mxPoint x="501.78999999999996" y="1036" as="sourcePoint" />
            <mxPoint x="1110" y="1036" as="targetPoint" />
            <Array as="points">
              <mxPoint x="895.79" y="1036" />
            </Array>
          </mxGeometry>
        </mxCell>
        <mxCell id="mYlwCPnGoARMPZfVm-Uc-26" value="&lt;span style=&quot;color: rgba(0, 0, 0, 0); font-family: monospace; font-size: 0px; text-align: start; background-color: rgb(236, 236, 236);&quot;&gt;%3CmxGraphModel%3E%3Croot%3E%3CmxCell%20id%3D%220%22%2F%3E%3CmxCell%20id%3D%221%22%20parent%3D%220%22%2F%3E%3CmxCell%20id%3D%222%22%20value%3D%224.%20InitiatePayment()%22%20style%3D%22html%3D1%3BverticalAlign%3Dbottom%3BendArrow%3Dopen%3BedgeStyle%3DelbowEdgeStyle%3Belbow%3Dvertical%3Bcurved%3D0%3Brounded%3D0%3BendFill%3D0%3BstartSize%3D10%3BendSize%3D6%3BjumpSize%3D6%3BstrokeWidth%3D1%3B%22%20edge%3D%221%22%20parent%3D%221%22%3E%3CmxGeometry%20x%3D%22-0.0004%22%20relative%3D%221%22%20as%3D%22geometry%22%3E%3CmxPoint%20x%3D%22596%22%20y%3D%22214.21%22%20as%3D%22sourcePoint%22%2F%3E%3CArray%20as%3D%22points%22%2F%3E%3CmxPoint%20x%3D%22714%22%20y%3D%22214.21%22%20as%3D%22targetPoint%22%2F%3E%3CmxPoint%20as%3D%22offset%22%2F%3E%3C%2FmxGeometry%3E%3C%2FmxCell%3E%3C%2Froot%3E%3C%2FmxGraphModel%3E&lt;/span&gt;&lt;span style=&quot;color: rgba(0, 0, 0, 0); font-family: monospace; font-size: 0px; text-align: start; background-color: rgb(236, 236, 236);&quot;&gt;%3CmxGraphModel%3E%3Croot%3E%3CmxCell%20id%3D%220%22%2F%3E%3CmxCell%20id%3D%221%22%20parent%3D%220%22%2F%3E%3CmxCell%20id%3D%222%22%20value%3D%224.%20InitiatePayment()%22%20style%3D%22html%3D1%3BverticalAlign%3Dbottom%3BendArrow%3Dopen%3BedgeStyle%3DelbowEdgeStyle%3Belbow%3Dvertical%3Bcurved%3D0%3Brounded%3D0%3BendFill%3D0%3BstartSize%3D10%3BendSize%3D6%3BjumpSize%3D6%3BstrokeWidth%3D1%3B%22%20edge%3D%221%22%20parent%3D%221%22%3E%3CmxGeometry%20x%3D%22-0.0004%22%20relative%3D%221%22%20as%3D%22geometry%22%3E%3CmxPoint%20x%3D%22596%22%20y%3D%22214.21%22%20as%3D%22sourcePoint%22%2F%3E%3CArray%20as%3D%22points%22%2F%3E%3CmxPoint%20x%3D%22714%22%20y%3D%22214.21%22%20as%3D%22targetPoint%22%2F%3E%3CmxPoint%20as%3D%22offset%22%2F%3E%3C%2FmxGeometry%3E%3C%2FmxCell%3E%3C%2Froot%3E%3C%2FmxGraphModel%3E&lt;/span&gt;" style="html=1;verticalAlign=bottom;endArrow=open;edgeStyle=elbowEdgeStyle;elbow=vertical;curved=0;rounded=0;endFill=0;startSize=10;endSize=6;jumpSize=6;strokeWidth=1;dashed=1;" edge="1" parent="1">
          <mxGeometry relative="1" as="geometry">
            <mxPoint x="810" y="1090" as="sourcePoint" />
            <Array as="points">
              <mxPoint x="600" y="1090" />
            </Array>
            <mxPoint x="585" y="1090" as="targetPoint" />
            <mxPoint as="offset" />
          </mxGeometry>
        </mxCell>
        <mxCell id="mYlwCPnGoARMPZfVm-Uc-27" value="16. showPaymentError()" style="edgeLabel;html=1;align=center;verticalAlign=middle;resizable=0;points=[];fontSize=9;" connectable="0" vertex="1" parent="mYlwCPnGoARMPZfVm-Uc-26">
          <mxGeometry x="0.1115" y="1" relative="1" as="geometry">
            <mxPoint x="4" y="-11" as="offset" />
          </mxGeometry>
        </mxCell>
        <mxCell id="mYlwCPnGoARMPZfVm-Uc-28" value="" style="html=1;points=[];perimeter=orthogonalPerimeter;outlineConnect=0;targetShapes=umlLifeline;portConstraint=eastwest;newEdgeStyle={&quot;edgeStyle&quot;:&quot;elbowEdgeStyle&quot;,&quot;elbow&quot;:&quot;vertical&quot;,&quot;curved&quot;:0,&quot;rounded&quot;:0};" vertex="1" parent="1">
          <mxGeometry x="1335" y="954" width="10" height="32" as="geometry" />
        </mxCell>
        <mxCell id="mYlwCPnGoARMPZfVm-Uc-29" value="&lt;span style=&quot;color: rgba(0, 0, 0, 0); font-family: monospace; font-size: 0px; text-align: start; background-color: rgb(236, 236, 236);&quot;&gt;%3CmxGraphModel%3E%3Croot%3E%3CmxCell%20id%3D%220%22%2F%3E%3CmxCell%20id%3D%221%22%20parent%3D%220%22%2F%3E%3CmxCell%20id%3D%222%22%20value%3D%224.%20InitiatePayment()%22%20style%3D%22html%3D1%3BverticalAlign%3Dbottom%3BendArrow%3Dopen%3BedgeStyle%3DelbowEdgeStyle%3Belbow%3Dvertical%3Bcurved%3D0%3Brounded%3D0%3BendFill%3D0%3BstartSize%3D10%3BendSize%3D6%3BjumpSize%3D6%3BstrokeWidth%3D1%3B%22%20edge%3D%221%22%20parent%3D%221%22%3E%3CmxGeometry%20x%3D%22-0.0004%22%20relative%3D%221%22%20as%3D%22geometry%22%3E%3CmxPoint%20x%3D%22596%22%20y%3D%22214.21%22%20as%3D%22sourcePoint%22%2F%3E%3CArray%20as%3D%22points%22%2F%3E%3CmxPoint%20x%3D%22714%22%20y%3D%22214.21%22%20as%3D%22targetPoint%22%2F%3E%3CmxPoint%20as%3D%22offset%22%2F%3E%3C%2FmxGeometry%3E%3C%2FmxCell%3E%3C%2Froot%3E%3C%2FmxGraphModel%3E&lt;/span&gt;&lt;span style=&quot;color: rgba(0, 0, 0, 0); font-family: monospace; font-size: 0px; text-align: start; background-color: rgb(236, 236, 236);&quot;&gt;%3CmxGraphModel%3E%3Croot%3E%3CmxCell%20id%3D%220%22%2F%3E%3CmxCell%20id%3D%221%22%20parent%3D%220%22%2F%3E%3CmxCell%20id%3D%222%22%20value%3D%224.%20InitiatePayment()%22%20style%3D%22html%3D1%3BverticalAlign%3Dbottom%3BendArrow%3Dopen%3BedgeStyle%3DelbowEdgeStyle%3Belbow%3Dvertical%3Bcurved%3D0%3Brounded%3D0%3BendFill%3D0%3BstartSize%3D10%3BendSize%3D6%3BjumpSize%3D6%3BstrokeWidth%3D1%3B%22%20edge%3D%221%22%20parent%3D%221%22%3E%3CmxGeometry%20x%3D%22-0.0004%22%20relative%3D%221%22%20as%3D%22geometry%22%3E%3CmxPoint%20x%3D%22596%22%20y%3D%22214.21%22%20as%3D%22sourcePoint%22%2F%3E%3CArray%20as%3D%22points%22%2F%3E%3CmxPoint%20x%3D%22714%22%20y%3D%22214.21%22%20as%3D%22targetPoint%22%2F%3E%3CmxPoint%20as%3D%22offset%22%2F%3E%3C%2FmxGeometry%3E%3C%2FmxCell%3E%3C%2Froot%3E%3C%2FmxGraphModel%3E&lt;/span&gt;" style="html=1;verticalAlign=bottom;endArrow=open;edgeStyle=elbowEdgeStyle;elbow=vertical;curved=0;rounded=0;endFill=0;startSize=10;endSize=6;jumpSize=6;strokeWidth=1;dashed=1;" edge="1" parent="1" source="mYlwCPnGoARMPZfVm-Uc-7">
          <mxGeometry relative="1" as="geometry">
            <mxPoint x="800" y="1015" as="sourcePoint" />
            <Array as="points">
              <mxPoint x="600" y="1015" />
            </Array>
            <mxPoint x="585" y="1015" as="targetPoint" />
            <mxPoint as="offset" />
          </mxGeometry>
        </mxCell>
        <mxCell id="mYlwCPnGoARMPZfVm-Uc-30" value="&lt;font style=&quot;font-size: 9px;&quot;&gt;15. showPaymentSuccessful()&lt;/font&gt;" style="edgeLabel;html=1;align=center;verticalAlign=middle;resizable=0;points=[];fontSize=11;" connectable="0" vertex="1" parent="mYlwCPnGoARMPZfVm-Uc-29">
          <mxGeometry x="0.1115" y="1" relative="1" as="geometry">
            <mxPoint x="4" y="-11" as="offset" />
          </mxGeometry>
        </mxCell>
        <mxCell id="mYlwCPnGoARMPZfVm-Uc-31" value="&lt;span style=&quot;font-size: 9px;&quot;&gt;4. sendCredentials() // and login&lt;/span&gt;" style="html=1;verticalAlign=bottom;endArrow=open;edgeStyle=elbowEdgeStyle;elbow=vertical;curved=0;rounded=0;endFill=0;" edge="1" parent="1" target="mYlwCPnGoARMPZfVm-Uc-7">
          <mxGeometry x="-0.0563" relative="1" as="geometry">
            <mxPoint x="583" y="650.0000000000002" as="sourcePoint" />
            <Array as="points" />
            <mxPoint x="1160" y="650" as="targetPoint" />
            <mxPoint as="offset" />
          </mxGeometry>
        </mxCell>
        <mxCell id="mYlwCPnGoARMPZfVm-Uc-32" value="alt" style="shape=umlFrame;whiteSpace=wrap;html=1;pointerEvents=0;width=30;height=29;" vertex="1" parent="1">
          <mxGeometry x="510" y="630" width="840" height="110" as="geometry" />
        </mxCell>
        <mxCell id="mYlwCPnGoARMPZfVm-Uc-33" value="&lt;span style=&quot;font-size: 6px;&quot;&gt;[Has an account]&lt;/span&gt;" style="text;html=1;whiteSpace=wrap;strokeColor=none;fillColor=none;align=center;verticalAlign=middle;rounded=0;" vertex="1" parent="1">
          <mxGeometry x="510" y="659" width="80" height="20" as="geometry" />
        </mxCell>
        <mxCell id="mYlwCPnGoARMPZfVm-Uc-34" value="" style="edgeStyle=orthogonalEdgeStyle;rounded=0;orthogonalLoop=1;jettySize=auto;html=1;dashed=1;endArrow=none;endFill=0;" edge="1" parent="1">
          <mxGeometry relative="1" as="geometry">
            <mxPoint x="1335" y="896.0909090909086" as="targetPoint" />
            <mxPoint x="1339.9999999999995" y="480" as="sourcePoint" />
            <Array as="points">
              <mxPoint x="1340" y="750" />
              <mxPoint x="1340" y="750" />
            </Array>
          </mxGeometry>
        </mxCell>
        <mxCell id="mYlwCPnGoARMPZfVm-Uc-35" value="" style="html=1;points=[];perimeter=orthogonalPerimeter;outlineConnect=0;targetShapes=umlLifeline;portConstraint=eastwest;newEdgeStyle={&quot;edgeStyle&quot;:&quot;elbowEdgeStyle&quot;,&quot;elbow&quot;:&quot;vertical&quot;,&quot;curved&quot;:0,&quot;rounded&quot;:0};" vertex="1" parent="1">
          <mxGeometry x="1335" y="887" width="10" height="17" as="geometry" />
        </mxCell>
        <mxCell id="mYlwCPnGoARMPZfVm-Uc-36" value="AWS SES" style="html=1;whiteSpace=wrap;" vertex="1" parent="1">
          <mxGeometry x="1110" y="430" width="110" height="50" as="geometry" />
        </mxCell>
        <mxCell id="mYlwCPnGoARMPZfVm-Uc-37" value="" style="edgeStyle=orthogonalEdgeStyle;rounded=0;orthogonalLoop=1;jettySize=auto;html=1;dashed=1;endArrow=none;endFill=0;exitX=0.5;exitY=1;exitDx=0;exitDy=0;" edge="1" parent="1" source="mYlwCPnGoARMPZfVm-Uc-36">
          <mxGeometry relative="1" as="geometry">
            <mxPoint x="1165" y="1270" as="targetPoint" />
            <mxPoint x="1165.0573684210535" y="1129.9999999999995" as="sourcePoint" />
            <Array as="points" />
          </mxGeometry>
        </mxCell>
        <mxCell id="mYlwCPnGoARMPZfVm-Uc-38" value="" style="edgeStyle=orthogonalEdgeStyle;rounded=0;orthogonalLoop=1;jettySize=auto;html=1;dashed=1;endArrow=none;endFill=0;" edge="1" parent="1">
          <mxGeometry relative="1" as="geometry">
            <mxPoint x="980" y="1270" as="targetPoint" />
            <mxPoint x="980.1100000000001" y="1129.9999999999995" as="sourcePoint" />
            <Array as="points">
              <mxPoint x="980" y="750" />
              <mxPoint x="980" y="750" />
            </Array>
          </mxGeometry>
        </mxCell>
        <mxCell id="mYlwCPnGoARMPZfVm-Uc-39" style="edgeStyle=orthogonalEdgeStyle;rounded=0;orthogonalLoop=1;jettySize=auto;html=1;exitX=0.5;exitY=1;exitDx=0;exitDy=0;" edge="1" parent="1" source="mYlwCPnGoARMPZfVm-Uc-33" target="mYlwCPnGoARMPZfVm-Uc-33">
          <mxGeometry relative="1" as="geometry" />
        </mxCell>
        <mxCell id="mYlwCPnGoARMPZfVm-Uc-40" value="" style="endArrow=none;dashed=1;html=1;strokeWidth=2;rounded=0;" edge="1" parent="1">
          <mxGeometry width="50" height="50" relative="1" as="geometry">
            <mxPoint x="512" y="689" as="sourcePoint" />
            <mxPoint x="1339.1100000000001" y="689" as="targetPoint" />
            <Array as="points">
              <mxPoint x="906" y="689" />
            </Array>
          </mxGeometry>
        </mxCell>
        <mxCell id="mYlwCPnGoARMPZfVm-Uc-41" value="&lt;font style=&quot;font-size: 9px;&quot;&gt;7. sendCredentials() // for further registr if payment ok&lt;/font&gt;" style="html=1;verticalAlign=bottom;endArrow=open;edgeStyle=elbowEdgeStyle;elbow=vertical;curved=0;rounded=0;endFill=0;" edge="1" parent="1">
          <mxGeometry x="0.0027" relative="1" as="geometry">
            <mxPoint x="588" y="708.0000000000002" as="sourcePoint" />
            <Array as="points" />
            <mxPoint x="811" y="709" as="targetPoint" />
            <mxPoint as="offset" />
          </mxGeometry>
        </mxCell>
        <mxCell id="mYlwCPnGoARMPZfVm-Uc-42" value="&lt;font style=&quot;font-size: 9px;&quot;&gt;6. Send OTP&lt;/font&gt;" style="html=1;verticalAlign=bottom;endArrow=open;edgeStyle=elbowEdgeStyle;elbow=vertical;curved=0;rounded=0;dashed=1;endFill=0;" edge="1" parent="1">
          <mxGeometry x="0.0016" relative="1" as="geometry">
            <mxPoint x="1166" y="677" as="sourcePoint" />
            <Array as="points">
              <mxPoint x="656" y="678" />
            </Array>
            <mxPoint x="585" y="678" as="targetPoint" />
            <mxPoint as="offset" />
          </mxGeometry>
        </mxCell>
        <mxCell id="mYlwCPnGoARMPZfVm-Uc-43" value="&lt;span style=&quot;font-size: 6px;&quot;&gt;[Every 30 days]&lt;/span&gt;" style="text;html=1;whiteSpace=wrap;strokeColor=none;fillColor=none;align=center;verticalAlign=middle;rounded=0;" vertex="1" parent="1">
          <mxGeometry x="521" y="1200" width="61" height="20" as="geometry" />
        </mxCell>
        <mxCell id="mYlwCPnGoARMPZfVm-Uc-44" value="&lt;font style=&quot;font-size: 9px;&quot;&gt;12. Send OTP&lt;/font&gt;" style="html=1;verticalAlign=bottom;endArrow=open;edgeStyle=elbowEdgeStyle;elbow=vertical;curved=0;rounded=0;dashed=1;endFill=0;" edge="1" parent="1">
          <mxGeometry x="-0.3588" relative="1" as="geometry">
            <mxPoint x="1166" y="921" as="sourcePoint" />
            <Array as="points" />
            <mxPoint x="584" y="920" as="targetPoint" />
            <mxPoint as="offset" />
          </mxGeometry>
        </mxCell>
        <mxCell id="mYlwCPnGoARMPZfVm-Uc-45" value="&lt;span style=&quot;font-size: 9px;&quot;&gt;5. sendOTPRequest()&lt;/span&gt;" style="html=1;verticalAlign=bottom;endArrow=open;edgeStyle=elbowEdgeStyle;elbow=vertical;curved=0;rounded=0;endFill=0;" edge="1" parent="1">
          <mxGeometry x="-0.056" relative="1" as="geometry">
            <mxPoint x="820" y="658.4700000000003" as="sourcePoint" />
            <Array as="points" />
            <mxPoint x="1160.1100000000001" y="660" as="targetPoint" />
            <mxPoint as="offset" />
          </mxGeometry>
        </mxCell>
        <mxCell id="mYlwCPnGoARMPZfVm-Uc-46" value="&lt;font style=&quot;font-size: 8px;&quot;&gt;// localStorage.setItem()&lt;/font&gt;" style="text;html=1;whiteSpace=wrap;strokeColor=none;fillColor=none;align=center;verticalAlign=middle;rounded=0;" vertex="1" parent="1">
          <mxGeometry x="825" y="708" width="90" height="22" as="geometry" />
        </mxCell>
        <mxCell id="mYlwCPnGoARMPZfVm-Uc-47" value="&lt;font style=&quot;font-size: 8px;&quot;&gt;// localStorage.clear()&lt;/font&gt;" style="text;html=1;whiteSpace=wrap;strokeColor=none;fillColor=none;align=center;verticalAlign=middle;rounded=0;" vertex="1" parent="1">
          <mxGeometry x="825" y="1049" width="80" height="30" as="geometry" />
        </mxCell>
        <mxCell id="mYlwCPnGoARMPZfVm-Uc-48" value="&lt;font style=&quot;font-size: 6px;&quot;&gt;[New user]&lt;/font&gt;" style="text;html=1;whiteSpace=wrap;strokeColor=none;fillColor=none;align=center;verticalAlign=middle;rounded=0;" vertex="1" parent="1">
          <mxGeometry x="518" y="698" width="60" height="20" as="geometry" />
        </mxCell>
        <mxCell id="mYlwCPnGoARMPZfVm-Uc-49" value="" style="edgeStyle=orthogonalEdgeStyle;rounded=0;orthogonalLoop=1;jettySize=auto;html=1;dashed=1;endArrow=none;endFill=0;" edge="1" parent="1" target="mYlwCPnGoARMPZfVm-Uc-50">
          <mxGeometry relative="1" as="geometry">
            <mxPoint x="980" y="1270" as="targetPoint" />
            <mxPoint x="980" y="480" as="sourcePoint" />
            <Array as="points" />
          </mxGeometry>
        </mxCell>
        <mxCell id="mYlwCPnGoARMPZfVm-Uc-50" value="" style="rounded=0;whiteSpace=wrap;html=1;" vertex="1" parent="1">
          <mxGeometry x="975.1100000000001" y="786" width="10" height="24" as="geometry" />
        </mxCell>
        <mxCell id="mYlwCPnGoARMPZfVm-Uc-51" value="" style="html=1;points=[];perimeter=orthogonalPerimeter;outlineConnect=0;targetShapes=umlLifeline;portConstraint=eastwest;newEdgeStyle={&quot;edgeStyle&quot;:&quot;elbowEdgeStyle&quot;,&quot;elbow&quot;:&quot;vertical&quot;,&quot;curved&quot;:0,&quot;rounded&quot;:0};" vertex="1" parent="1">
          <mxGeometry x="810" y="510" width="10" height="30" as="geometry" />
        </mxCell>
        <mxCell id="mYlwCPnGoARMPZfVm-Uc-52" value="loop" style="shape=umlFrame;whiteSpace=wrap;html=1;pointerEvents=0;width=40;height=30;" vertex="1" parent="1">
          <mxGeometry x="518" y="1170" width="320" height="60" as="geometry" />
        </mxCell>
        <mxCell id="mYlwCPnGoARMPZfVm-Uc-53" value="&lt;span style=&quot;color: rgba(0, 0, 0, 0); font-family: monospace; font-size: 0px; text-align: start; background-color: rgb(236, 236, 236);&quot;&gt;%3CmxGraphModel%3E%3Croot%3E%3CmxCell%20id%3D%220%22%2F%3E%3CmxCell%20id%3D%221%22%20parent%3D%220%22%2F%3E%3CmxCell%20id%3D%222%22%20value%3D%224.%20InitiatePayment()%22%20style%3D%22html%3D1%3BverticalAlign%3Dbottom%3BendArrow%3Dopen%3BedgeStyle%3DelbowEdgeStyle%3Belbow%3Dvertical%3Bcurved%3D0%3Brounded%3D0%3BendFill%3D0%3BstartSize%3D10%3BendSize%3D6%3BjumpSize%3D6%3BstrokeWidth%3D1%3B%22%20edge%3D%221%22%20parent%3D%221%22%3E%3CmxGeometry%20x%3D%22-0.0004%22%20relative%3D%221%22%20as%3D%22geometry%22%3E%3CmxPoint%20x%3D%22596%22%20y%3D%22214.21%22%20as%3D%22sourcePoint%22%2F%3E%3CArray%20as%3D%22points%22%2F%3E%3CmxPoint%20x%3D%22714%22%20y%3D%22214.21%22%20as%3D%22targetPoint%22%2F%3E%3CmxPoint%20as%3D%22offset%22%2F%3E%3C%2FmxGeometry%3E%3C%2FmxCell%3E%3C%2Froot%3E%3C%2FmxGraphModel%3E&lt;/span&gt;&lt;span style=&quot;color: rgba(0, 0, 0, 0); font-family: monospace; font-size: 0px; text-align: start; background-color: rgb(236, 236, 236);&quot;&gt;%3CmxGraphModel%3E%3Croot%3E%3CmxCell%20id%3D%220%22%2F%3E%3CmxCell%20id%3D%221%22%20parent%3D%220%22%2F%3E%3CmxCell%20id%3D%222%22%20value%3D%224.%20InitiatePayment()%22%20style%3D%22html%3D1%3BverticalAlign%3Dbottom%3BendArrow%3Dopen%3BedgeStyle%3DelbowEdgeStyle%3Belbow%3Dvertical%3Bcurved%3D0%3Brounded%3D0%3BendFill%3D0%3BstartSize%3D10%3BendSize%3D6%3BjumpSize%3D6%3BstrokeWidth%3D1%3B%22%20edge%3D%221%22%20parent%3D%221%22%3E%3CmxGeometry%20x%3D%22-0.0004%22%20relative%3D%221%22%20as%3D%22geometry%22%3E%3CmxPoint%20x%3D%22596%22%20y%3D%22214.21%22%20as%3D%22sourcePoint%22%2F%3E%3CArray%20as%3D%22points%22%2F%3E%3CmxPoint%20x%3D%22714%22%20y%3D%22214.21%22%20as%3D%22targetPoint%22%2F%3E%3CmxPoint%20as%3D%22offset%22%2F%3E%3C%2FmxGeometry%3E%3C%2FmxCell%3E%3C%2Froot%3E%3C%2FmxGraphModel%3E&lt;/span&gt;" style="html=1;verticalAlign=bottom;endArrow=open;edgeStyle=elbowEdgeStyle;elbow=vertical;curved=0;rounded=0;endFill=0;startSize=10;endSize=6;jumpSize=6;strokeWidth=1;dashed=1;" edge="1" parent="1">
          <mxGeometry relative="1" as="geometry">
            <mxPoint x="813" y="1209.76" as="sourcePoint" />
            <Array as="points">
              <mxPoint x="603" y="1209.76" />
            </Array>
            <mxPoint x="586.1100000000001" y="1209" as="targetPoint" />
            <mxPoint as="offset" />
          </mxGeometry>
        </mxCell>
        <mxCell id="mYlwCPnGoARMPZfVm-Uc-54" value="17. sendRenewalNotification()" style="edgeLabel;html=1;align=center;verticalAlign=middle;resizable=0;points=[];fontSize=9;" connectable="0" vertex="1" parent="mYlwCPnGoARMPZfVm-Uc-53">
          <mxGeometry x="0.1115" y="1" relative="1" as="geometry">
            <mxPoint x="4" y="-11" as="offset" />
          </mxGeometry>
        </mxCell>
        <mxCell id="mYlwCPnGoARMPZfVm-Uc-55" value="" style="edgeStyle=orthogonalEdgeStyle;rounded=0;orthogonalLoop=1;jettySize=auto;html=1;dashed=1;endArrow=none;endFill=0;" edge="1" parent="1" source="mYlwCPnGoARMPZfVm-Uc-2">
          <mxGeometry relative="1" as="geometry">
            <mxPoint x="585.1100000000001" y="1264" as="targetPoint" />
            <mxPoint x="585.1100000000001" y="480" as="sourcePoint" />
            <Array as="points" />
          </mxGeometry>
        </mxCell>
        <mxCell id="mYlwCPnGoARMPZfVm-Uc-58" value="" style="html=1;points=[];perimeter=orthogonalPerimeter;outlineConnect=0;targetShapes=umlLifeline;portConstraint=eastwest;newEdgeStyle={&quot;edgeStyle&quot;:&quot;elbowEdgeStyle&quot;,&quot;elbow&quot;:&quot;vertical&quot;,&quot;curved&quot;:0,&quot;rounded&quot;:0};direction=west;" vertex="1" parent="1">
          <mxGeometry x="1160" y="659" width="10" height="19" as="geometry" />
        </mxCell>
        <mxCell id="mYlwCPnGoARMPZfVm-Uc-60" value="" style="edgeStyle=orthogonalEdgeStyle;rounded=0;orthogonalLoop=1;jettySize=auto;html=1;dashed=1;endArrow=none;endFill=0;exitX=0.5;exitY=1;exitDx=0;exitDy=0;" edge="1" parent="1" source="mYlwCPnGoARMPZfVm-Uc-3" target="mYlwCPnGoARMPZfVm-Uc-59">
          <mxGeometry relative="1" as="geometry">
            <mxPoint x="814" y="1270" as="targetPoint" />
            <mxPoint x="815" y="480" as="sourcePoint" />
          </mxGeometry>
        </mxCell>
        <mxCell id="mYlwCPnGoARMPZfVm-Uc-59" value="" style="shape=umlDestroy;whiteSpace=wrap;html=1;strokeWidth=3;targetShapes=umlLifeline;" vertex="1" parent="1">
          <mxGeometry x="800" y="1130" width="30" height="30" as="geometry" />
        </mxCell>
      </root>
    </mxGraphModel>
  </diagram>
</mxfile>
